STARTFONT 2.1
COMMENT Font grabbed from the X server.
FONT -Yanc-YancFontDZ-Bold-R-Bold--12-80-100-100-C-60-ISO8859-1
SIZE 8 100 100
FONTBOUNDINGBOX 6 12 0 -2
STARTPROPERTIES 34
FOUNDRY "Yanc"
FAMILY_NAME "YancFontDZ"
WEIGHT_NAME "Bold"
SLANT "R"
SETWIDTH_NAME "Bold"
ADD_STYLE_NAME ""
PIXEL_SIZE 12
POINT_SIZE 80
RESOLUTION_X 100
RESOLUTION_Y 100
SPACING "C"
AVERAGE_WIDTH 60
CHARSET_REGISTRY "ISO8859"
CHARSET_ENCODING "1"
FONTNAME_REGISTRY ""
FONT_NAME "YancFont"
FACE_NAME "YancFont"
FONT_VERSION "001.000"
UNDERLINE_POSITION -1
UNDERLINE_THICKNESS 1
X_HEIGHT 5
CAP_HEIGHT 8
RAW_ASCENT 818
RAW_DESCENT 182
NORM_SPACE 6
FIGURE_WIDTH 6
AVG_LOWERCASE_WIDTH 60
AVG_UPPERCASE_WIDTH "60"
WEIGHT 10
RESOLUTION 138
QUAD_WIDTH 6
FONT_ASCENT 10
FONT_DESCENT 2
_GBDFED_INFO "Edited with gbdfed 1.6."
ENDPROPERTIES
CHARS 191
STARTCHAR char32
ENCODING 32
SWIDTH 540 0
DWIDTH 6 0
BBX 6 12 0 -2
BITMAP
00
00
00
00
00
00
00
00
00
00
00
00
ENDCHAR
STARTCHAR char33
ENCODING 33
SWIDTH 540 0
DWIDTH 6 0
BBX 6 12 0 -2
BITMAP
00
30
30
30
30
30
30
30
00
30
00
00
ENDCHAR
STARTCHAR char34
ENCODING 34
SWIDTH 540 0
DWIDTH 6 0
BBX 6 12 0 -2
BITMAP
00
D8
D8
D8
D8
00
00
00
00
00
00
00
ENDCHAR
STARTCHAR char35
ENCODING 35
SWIDTH 540 0
DWIDTH 6 0
BBX 6 12 0 -2
BITMAP
00
00
68
68
FC
68
68
FC
68
68
00
00
ENDCHAR
STARTCHAR char36
ENCODING 36
SWIDTH 540 0
DWIDTH 6 0
BBX 6 12 0 -2
BITMAP
00
30
70
F8
F0
70
38
F8
F8
70
20
00
ENDCHAR
STARTCHAR char37
ENCODING 37
SWIDTH 540 0
DWIDTH 6 0
BBX 6 12 0 -2
BITMAP
00
E0
A8
D8
38
70
E0
D8
A8
38
00
00
ENDCHAR
STARTCHAR char38
ENCODING 38
SWIDTH 540 0
DWIDTH 6 0
BBX 6 12 0 -2
BITMAP
00
00
60
D0
F0
60
F0
D8
D8
78
00
00
ENDCHAR
STARTCHAR char39
ENCODING 39
SWIDTH 540 0
DWIDTH 6 0
BBX 6 12 0 -2
BITMAP
00
30
30
30
30
00
00
00
00
00
00
00
ENDCHAR
STARTCHAR char40
ENCODING 40
SWIDTH 540 0
DWIDTH 6 0
BBX 6 12 0 -2
BITMAP
00
18
30
60
60
60
60
60
60
30
18
00
ENDCHAR
STARTCHAR char41
ENCODING 41
SWIDTH 540 0
DWIDTH 6 0
BBX 6 12 0 -2
BITMAP
00
C0
60
30
30
30
30
30
30
60
C0
00
ENDCHAR
STARTCHAR char42
ENCODING 42
SWIDTH 540 0
DWIDTH 6 0
BBX 6 12 0 -2
BITMAP
00
00
00
20
F8
70
F8
20
00
00
00
00
ENDCHAR
STARTCHAR char43
ENCODING 43
SWIDTH 540 0
DWIDTH 6 0
BBX 6 12 0 -2
BITMAP
00
00
00
20
20
F8
20
20
00
00
00
00
ENDCHAR
STARTCHAR char44
ENCODING 44
SWIDTH 540 0
DWIDTH 6 0
BBX 6 12 0 -2
BITMAP
00
00
00
00
00
00
00
00
70
70
30
60
ENDCHAR
STARTCHAR char45
ENCODING 45
SWIDTH 540 0
DWIDTH 6 0
BBX 6 12 0 -2
BITMAP
00
00
00
00
00
F8
00
00
00
00
00
00
ENDCHAR
STARTCHAR char46
ENCODING 46
SWIDTH 540 0
DWIDTH 6 0
BBX 6 12 0 -2
BITMAP
00
00
00
00
00
00
00
00
70
70
00
00
ENDCHAR
STARTCHAR char47
ENCODING 47
SWIDTH 540 0
DWIDTH 6 0
BBX 6 12 0 -2
BITMAP
00
18
18
18
30
30
70
60
60
C0
C0
C0
ENDCHAR
STARTCHAR char48
ENCODING 48
SWIDTH 540 0
DWIDTH 6 0
BBX 6 12 0 -2
BITMAP
00
70
D8
D8
D8
F8
D8
D8
D8
70
00
00
ENDCHAR
STARTCHAR char49
ENCODING 49
SWIDTH 540 0
DWIDTH 6 0
BBX 6 12 0 -2
BITMAP
00
30
70
F0
30
30
30
30
30
30
00
00
ENDCHAR
STARTCHAR char50
ENCODING 50
SWIDTH 540 0
DWIDTH 6 0
BBX 6 12 0 -2
BITMAP
00
70
D8
18
18
18
30
60
C0
F8
00
00
ENDCHAR
STARTCHAR char51
ENCODING 51
SWIDTH 540 0
DWIDTH 6 0
BBX 6 12 0 -2
BITMAP
00
70
D8
18
18
30
18
18
D8
70
00
00
ENDCHAR
STARTCHAR char52
ENCODING 52
SWIDTH 540 0
DWIDTH 6 0
BBX 6 12 0 -2
BITMAP
00
18
38
78
78
D8
F8
18
18
18
00
00
ENDCHAR
STARTCHAR char53
ENCODING 53
SWIDTH 540 0
DWIDTH 6 0
BBX 6 12 0 -2
BITMAP
00
F8
C0
C0
C0
F0
18
18
D8
70
00
00
ENDCHAR
STARTCHAR char54
ENCODING 54
SWIDTH 540 0
DWIDTH 6 0
BBX 6 12 0 -2
BITMAP
00
70
D8
C0
C0
F0
D8
D8
D8
70
00
00
ENDCHAR
STARTCHAR char55
ENCODING 55
SWIDTH 540 0
DWIDTH 6 0
BBX 6 12 0 -2
BITMAP
00
F8
18
18
30
30
30
60
60
60
00
00
ENDCHAR
STARTCHAR char56
ENCODING 56
SWIDTH 540 0
DWIDTH 6 0
BBX 6 12 0 -2
BITMAP
00
70
D8
D8
D8
70
D8
D8
D8
70
00
00
ENDCHAR
STARTCHAR char57
ENCODING 57
SWIDTH 540 0
DWIDTH 6 0
BBX 6 12 0 -2
BITMAP
00
70
D8
D8
D8
78
18
18
D8
70
00
00
ENDCHAR
STARTCHAR char58
ENCODING 58
SWIDTH 540 0
DWIDTH 6 0
BBX 6 12 0 -2
BITMAP
00
00
00
00
70
70
00
00
70
70
00
00
ENDCHAR
STARTCHAR char59
ENCODING 59
SWIDTH 540 0
DWIDTH 6 0
BBX 6 12 0 -2
BITMAP
00
00
00
00
70
70
00
00
70
70
30
60
ENDCHAR
STARTCHAR char60
ENCODING 60
SWIDTH 540 0
DWIDTH 6 0
BBX 6 12 0 -2
BITMAP
00
08
18
30
60
C0
60
30
18
08
00
00
ENDCHAR
STARTCHAR char61
ENCODING 61
SWIDTH 540 0
DWIDTH 6 0
BBX 6 12 0 -2
BITMAP
00
00
00
00
F8
00
00
F8
00
00
00
00
ENDCHAR
STARTCHAR char62
ENCODING 62
SWIDTH 540 0
DWIDTH 6 0
BBX 6 12 0 -2
BITMAP
00
80
C0
60
30
18
30
60
C0
80
00
00
ENDCHAR
STARTCHAR char63
ENCODING 63
SWIDTH 540 0
DWIDTH 6 0
BBX 6 12 0 -2
BITMAP
00
70
D8
D8
18
18
30
30
00
30
00
00
ENDCHAR
STARTCHAR char64
ENCODING 64
SWIDTH 540 0
DWIDTH 6 0
BBX 6 12 0 -2
BITMAP
00
00
70
F8
F8
E8
E8
F8
C0
78
00
00
ENDCHAR
STARTCHAR char65
ENCODING 65
SWIDTH 540 0
DWIDTH 6 0
BBX 6 12 0 -2
BITMAP
00
70
D8
D8
D8
F8
D8
D8
D8
D8
00
00
ENDCHAR
STARTCHAR char66
ENCODING 66
SWIDTH 540 0
DWIDTH 6 0
BBX 6 12 0 -2
BITMAP
00
F0
D8
D8
D8
F0
D8
D8
D8
F0
00
00
ENDCHAR
STARTCHAR char67
ENCODING 67
SWIDTH 540 0
DWIDTH 6 0
BBX 6 12 0 -2
BITMAP
00
70
D8
C0
C0
C0
C0
C0
D8
70
00
00
ENDCHAR
STARTCHAR char68
ENCODING 68
SWIDTH 540 0
DWIDTH 6 0
BBX 6 12 0 -2
BITMAP
00
F0
D8
D8
D8
D8
D8
D8
D8
F0
00
00
ENDCHAR
STARTCHAR char69
ENCODING 69
SWIDTH 540 0
DWIDTH 6 0
BBX 6 12 0 -2
BITMAP
00
F8
C0
C0
C0
F0
C0
C0
C0
F8
00
00
ENDCHAR
STARTCHAR char70
ENCODING 70
SWIDTH 540 0
DWIDTH 6 0
BBX 6 12 0 -2
BITMAP
00
F8
C0
C0
C0
F0
C0
C0
C0
C0
00
00
ENDCHAR
STARTCHAR char71
ENCODING 71
SWIDTH 540 0
DWIDTH 6 0
BBX 6 12 0 -2
BITMAP
00
70
D8
C0
C0
D8
C8
C8
D8
70
00
00
ENDCHAR
STARTCHAR char72
ENCODING 72
SWIDTH 540 0
DWIDTH 6 0
BBX 6 12 0 -2
BITMAP
00
D8
D8
D8
D8
F8
D8
D8
D8
D8
00
00
ENDCHAR
STARTCHAR char73
ENCODING 73
SWIDTH 540 0
DWIDTH 6 0
BBX 6 12 0 -2
BITMAP
00
78
30
30
30
30
30
30
30
78
00
00
ENDCHAR
STARTCHAR char74
ENCODING 74
SWIDTH 540 0
DWIDTH 6 0
BBX 6 12 0 -2
BITMAP
00
18
18
18
18
18
D8
D8
D8
70
00
00
ENDCHAR
STARTCHAR char75
ENCODING 75
SWIDTH 540 0
DWIDTH 6 0
BBX 6 12 0 -2
BITMAP
00
D8
D8
D8
F0
E0
F0
D8
D8
D8
00
00
ENDCHAR
STARTCHAR char76
ENCODING 76
SWIDTH 540 0
DWIDTH 6 0
BBX 6 12 0 -2
BITMAP
00
C0
C0
C0
C0
C0
C0
C0
C0
F8
00
00
ENDCHAR
STARTCHAR char77
ENCODING 77
SWIDTH 540 0
DWIDTH 6 0
BBX 6 12 0 -2
BITMAP
00
88
D8
F8
F8
F8
D8
D8
D8
D8
00
00
ENDCHAR
STARTCHAR char78
ENCODING 78
SWIDTH 540 0
DWIDTH 6 0
BBX 6 12 0 -2
BITMAP
00
98
D8
D8
F8
F8
F8
D8
D8
C8
00
00
ENDCHAR
STARTCHAR char79
ENCODING 79
SWIDTH 540 0
DWIDTH 6 0
BBX 6 12 0 -2
BITMAP
00
70
D8
D8
D8
D8
D8
D8
D8
70
00
00
ENDCHAR
STARTCHAR char80
ENCODING 80
SWIDTH 540 0
DWIDTH 6 0
BBX 6 12 0 -2
BITMAP
00
F0
D8
D8
D8
F0
C0
C0
C0
C0
00
00
ENDCHAR
STARTCHAR char81
ENCODING 81
SWIDTH 540 0
DWIDTH 6 0
BBX 6 12 0 -2
BITMAP
00
70
D8
D8
D8
D8
F8
D8
D8
7C
00
00
ENDCHAR
STARTCHAR char82
ENCODING 82
SWIDTH 540 0
DWIDTH 6 0
BBX 6 12 0 -2
BITMAP
00
F0
D8
D8
D8
F0
F0
D8
D8
D8
00
00
ENDCHAR
STARTCHAR char83
ENCODING 83
SWIDTH 540 0
DWIDTH 6 0
BBX 6 12 0 -2
BITMAP
00
70
D8
C0
C0
70
18
D8
D8
70
00
00
ENDCHAR
STARTCHAR char84
ENCODING 84
SWIDTH 540 0
DWIDTH 6 0
BBX 6 12 0 -2
BITMAP
00
FC
30
30
30
30
30
30
30
30
00
00
ENDCHAR
STARTCHAR char85
ENCODING 85
SWIDTH 540 0
DWIDTH 6 0
BBX 6 12 0 -2
BITMAP
00
D8
D8
D8
D8
D8
D8
D8
D8
70
00
00
ENDCHAR
STARTCHAR char86
ENCODING 86
SWIDTH 540 0
DWIDTH 6 0
BBX 6 12 0 -2
BITMAP
00
D8
D8
D8
D8
F8
70
70
70
20
00
00
ENDCHAR
STARTCHAR char87
ENCODING 87
SWIDTH 540 0
DWIDTH 6 0
BBX 6 12 0 -2
BITMAP
00
D8
D8
D8
D8
F8
F8
F8
70
50
00
00
ENDCHAR
STARTCHAR char88
ENCODING 88
SWIDTH 540 0
DWIDTH 6 0
BBX 6 12 0 -2
BITMAP
00
D8
D8
D8
70
20
70
D8
D8
D8
00
00
ENDCHAR
STARTCHAR char89
ENCODING 89
SWIDTH 540 0
DWIDTH 6 0
BBX 6 12 0 -2
BITMAP
00
D8
D8
78
70
30
30
30
30
30
00
00
ENDCHAR
STARTCHAR char90
ENCODING 90
SWIDTH 540 0
DWIDTH 6 0
BBX 6 12 0 -2
BITMAP
00
F8
18
18
30
30
60
60
C0
F8
00
00
ENDCHAR
STARTCHAR char91
ENCODING 91
SWIDTH 540 0
DWIDTH 6 0
BBX 6 12 0 -2
BITMAP
00
78
60
60
60
60
60
60
60
60
78
00
ENDCHAR
STARTCHAR char92
ENCODING 92
SWIDTH 540 0
DWIDTH 6 0
BBX 6 12 0 -2
BITMAP
00
C0
C0
60
60
30
30
30
18
18
0C
0C
ENDCHAR
STARTCHAR char93
ENCODING 93
SWIDTH 540 0
DWIDTH 6 0
BBX 6 12 0 -2
BITMAP
00
F0
30
30
30
30
30
30
30
30
F0
00
ENDCHAR
STARTCHAR char94
ENCODING 94
SWIDTH 540 0
DWIDTH 6 0
BBX 6 12 0 -2
BITMAP
00
00
20
70
F8
D8
00
00
00
00
00
00
ENDCHAR
STARTCHAR char95
ENCODING 95
SWIDTH 540 0
DWIDTH 6 0
BBX 6 12 0 -2
BITMAP
00
00
00
00
00
00
00
00
00
F8
00
00
ENDCHAR
STARTCHAR char96
ENCODING 96
SWIDTH 540 0
DWIDTH 6 0
BBX 6 12 0 -2
BITMAP
00
60
30
30
18
00
00
00
00
00
00
00
ENDCHAR
STARTCHAR char97
ENCODING 97
SWIDTH 540 0
DWIDTH 6 0
BBX 6 12 0 -2
BITMAP
00
00
00
00
70
18
78
D8
D8
78
00
00
ENDCHAR
STARTCHAR char98
ENCODING 98
SWIDTH 540 0
DWIDTH 6 0
BBX 6 12 0 -2
BITMAP
00
C0
C0
C0
F0
D8
D8
D8
D8
F0
00
00
ENDCHAR
STARTCHAR char99
ENCODING 99
SWIDTH 540 0
DWIDTH 6 0
BBX 6 12 0 -2
BITMAP
00
00
00
00
78
C0
C0
C0
C0
78
00
00
ENDCHAR
STARTCHAR char100
ENCODING 100
SWIDTH 540 0
DWIDTH 6 0
BBX 6 12 0 -2
BITMAP
00
18
18
18
78
D8
D8
D8
D8
78
00
00
ENDCHAR
STARTCHAR char101
ENCODING 101
SWIDTH 540 0
DWIDTH 6 0
BBX 6 12 0 -2
BITMAP
00
00
00
00
70
C8
F8
C0
C0
78
00
00
ENDCHAR
STARTCHAR char102
ENCODING 102
SWIDTH 540 0
DWIDTH 6 0
BBX 6 12 0 -2
BITMAP
00
30
60
60
F0
60
60
60
60
60
00
00
ENDCHAR
STARTCHAR char103
ENCODING 103
SWIDTH 540 0
DWIDTH 6 0
BBX 6 12 0 -2
BITMAP
00
00
00
00
70
D8
D8
D8
78
18
18
70
ENDCHAR
STARTCHAR char104
ENCODING 104
SWIDTH 540 0
DWIDTH 6 0
BBX 6 12 0 -2
BITMAP
00
C0
C0
C0
F0
D8
D8
D8
D8
D8
00
00
ENDCHAR
STARTCHAR char105
ENCODING 105
SWIDTH 540 0
DWIDTH 6 0
BBX 6 12 0 -2
BITMAP
00
00
30
00
70
30
30
30
30
38
00
00
ENDCHAR
STARTCHAR char106
ENCODING 106
SWIDTH 540 0
DWIDTH 6 0
BBX 6 12 0 -2
BITMAP
00
00
30
00
30
30
30
30
30
30
30
E0
ENDCHAR
STARTCHAR char107
ENCODING 107
SWIDTH 540 0
DWIDTH 6 0
BBX 6 12 0 -2
BITMAP
00
C0
C0
C0
D8
D8
F0
F8
D8
D8
00
00
ENDCHAR
STARTCHAR char108
ENCODING 108
SWIDTH 540 0
DWIDTH 6 0
BBX 6 12 0 -2
BITMAP
00
30
30
30
30
30
30
30
30
18
00
00
ENDCHAR
STARTCHAR char109
ENCODING 109
SWIDTH 540 0
DWIDTH 6 0
BBX 6 12 0 -2
BITMAP
00
00
00
00
F0
F8
F8
F8
F8
A8
00
00
ENDCHAR
STARTCHAR char110
ENCODING 110
SWIDTH 540 0
DWIDTH 6 0
BBX 6 12 0 -2
BITMAP
00
00
00
00
F0
D8
D8
D8
D8
D8
00
00
ENDCHAR
STARTCHAR char111
ENCODING 111
SWIDTH 540 0
DWIDTH 6 0
BBX 6 12 0 -2
BITMAP
00
00
00
00
70
D8
D8
D8
D8
70
00
00
ENDCHAR
STARTCHAR char112
ENCODING 112
SWIDTH 540 0
DWIDTH 6 0
BBX 6 12 0 -2
BITMAP
00
00
00
00
F0
D8
D8
D8
D8
F0
C0
C0
ENDCHAR
STARTCHAR char113
ENCODING 113
SWIDTH 540 0
DWIDTH 6 0
BBX 6 12 0 -2
BITMAP
00
00
00
00
78
D8
D8
D8
D8
78
18
18
ENDCHAR
STARTCHAR char114
ENCODING 114
SWIDTH 540 0
DWIDTH 6 0
BBX 6 12 0 -2
BITMAP
00
00
00
00
F0
D8
C0
C0
C0
C0
00
00
ENDCHAR
STARTCHAR char115
ENCODING 115
SWIDTH 540 0
DWIDTH 6 0
BBX 6 12 0 -2
BITMAP
00
00
00
00
70
C0
70
18
D8
70
00
00
ENDCHAR
STARTCHAR char116
ENCODING 116
SWIDTH 540 0
DWIDTH 6 0
BBX 6 12 0 -2
BITMAP
00
60
60
60
F0
60
60
60
60
30
00
00
ENDCHAR
STARTCHAR char117
ENCODING 117
SWIDTH 540 0
DWIDTH 6 0
BBX 6 12 0 -2
BITMAP
00
00
00
00
D8
D8
D8
D8
D8
78
00
00
ENDCHAR
STARTCHAR char118
ENCODING 118
SWIDTH 540 0
DWIDTH 6 0
BBX 6 12 0 -2
BITMAP
00
00
00
00
D8
D8
70
70
70
20
00
00
ENDCHAR
STARTCHAR char119
ENCODING 119
SWIDTH 540 0
DWIDTH 6 0
BBX 6 12 0 -2
BITMAP
00
00
00
00
D8
D8
F8
F8
F8
50
00
00
ENDCHAR
STARTCHAR char120
ENCODING 120
SWIDTH 540 0
DWIDTH 6 0
BBX 6 12 0 -2
BITMAP
00
00
00
00
D8
70
70
70
70
D8
00
00
ENDCHAR
STARTCHAR char121
ENCODING 121
SWIDTH 540 0
DWIDTH 6 0
BBX 6 12 0 -2
BITMAP
00
00
00
00
D8
D8
D8
D8
78
18
D8
70
ENDCHAR
STARTCHAR char122
ENCODING 122
SWIDTH 540 0
DWIDTH 6 0
BBX 6 12 0 -2
BITMAP
00
00
00
00
F8
18
30
30
60
F8
00
00
ENDCHAR
STARTCHAR char123
ENCODING 123
SWIDTH 540 0
DWIDTH 6 0
BBX 6 12 0 -2
BITMAP
00
18
30
30
30
E0
30
30
30
30
18
00
ENDCHAR
STARTCHAR char124
ENCODING 124
SWIDTH 540 0
DWIDTH 6 0
BBX 6 12 0 -2
BITMAP
00
30
30
30
30
30
30
30
30
30
30
00
ENDCHAR
STARTCHAR char125
ENCODING 125
SWIDTH 540 0
DWIDTH 6 0
BBX 6 12 0 -2
BITMAP
00
60
30
30
30
1C
30
30
30
30
60
00
ENDCHAR
STARTCHAR char126
ENCODING 126
SWIDTH 540 0
DWIDTH 6 0
BBX 6 12 0 -2
BITMAP
00
00
00
00
68
F8
D8
00
00
00
00
00
ENDCHAR
STARTCHAR char160
ENCODING 160
SWIDTH 540 0
DWIDTH 6 0
BBX 6 12 0 -2
BITMAP
00
00
00
00
00
00
00
00
00
00
00
00
ENDCHAR
STARTCHAR char161
ENCODING 161
SWIDTH 540 0
DWIDTH 6 0
BBX 6 12 0 -2
BITMAP
00
30
00
30
30
30
30
30
30
30
00
00
ENDCHAR
STARTCHAR char162
ENCODING 162
SWIDTH 540 0
DWIDTH 6 0
BBX 6 12 0 -2
BITMAP
00
00
00
30
78
B0
B0
B0
B0
78
30
00
ENDCHAR
STARTCHAR char163
ENCODING 163
SWIDTH 540 0
DWIDTH 6 0
BBX 6 12 0 -2
BITMAP
00
30
68
60
60
F0
60
60
68
B0
00
00
ENDCHAR
STARTCHAR char164
ENCODING 164
SWIDTH 540 0
DWIDTH 6 0
BBX 6 12 0 -2
BITMAP
00
00
00
00
D8
70
50
50
70
D8
00
00
ENDCHAR
STARTCHAR char165
ENCODING 165
SWIDTH 540 0
DWIDTH 6 0
BBX 6 12 0 -2
BITMAP
00
D8
D8
70
70
20
F8
20
F8
20
20
00
ENDCHAR
STARTCHAR char166
ENCODING 166
SWIDTH 540 0
DWIDTH 6 0
BBX 6 12 0 -2
BITMAP
00
30
30
30
30
00
00
30
30
30
30
00
ENDCHAR
STARTCHAR char167
ENCODING 167
SWIDTH 540 0
DWIDTH 6 0
BBX 6 12 0 -2
BITMAP
00
30
78
60
30
68
68
30
18
38
70
00
ENDCHAR
STARTCHAR char168
ENCODING 168
SWIDTH 540 0
DWIDTH 6 0
BBX 6 12 0 -2
BITMAP
00
50
00
00
00
00
00
00
00
00
00
00
ENDCHAR
STARTCHAR char169
ENCODING 169
SWIDTH 540 0
DWIDTH 6 0
BBX 6 12 0 -2
BITMAP
00
00
70
88
A8
C8
C8
A8
88
70
00
00
ENDCHAR
STARTCHAR char170
ENCODING 170
SWIDTH 540 0
DWIDTH 6 0
BBX 6 12 0 -2
BITMAP
00
00
38
68
68
78
38
00
78
00
00
00
ENDCHAR
STARTCHAR char171
ENCODING 171
SWIDTH 540 0
DWIDTH 6 0
BBX 6 12 0 -2
BITMAP
00
00
34
6C
D8
B0
D8
6C
34
00
00
00
ENDCHAR
STARTCHAR char172
ENCODING 172
SWIDTH 540 0
DWIDTH 6 0
BBX 6 12 0 -2
BITMAP
00
00
00
00
00
78
18
18
00
00
00
00
ENDCHAR
STARTCHAR char173
ENCODING 173
SWIDTH 540 0
DWIDTH 6 0
BBX 6 12 0 -2
BITMAP
00
00
00
00
00
78
00
00
00
00
00
00
ENDCHAR
STARTCHAR char174
ENCODING 174
SWIDTH 540 0
DWIDTH 6 0
BBX 6 12 0 -2
BITMAP
00
00
70
C8
C8
F8
E8
E8
C8
70
00
00
ENDCHAR
STARTCHAR char175
ENCODING 175
SWIDTH 540 0
DWIDTH 6 0
BBX 6 12 0 -2
BITMAP
00
F8
00
00
00
00
00
00
00
00
00
00
ENDCHAR
STARTCHAR char176
ENCODING 176
SWIDTH 540 0
DWIDTH 6 0
BBX 6 12 0 -2
BITMAP
00
30
58
58
30
00
00
00
00
00
00
00
ENDCHAR
STARTCHAR char177
ENCODING 177
SWIDTH 540 0
DWIDTH 6 0
BBX 6 12 0 -2
BITMAP
00
00
00
60
60
F8
60
60
60
F8
00
00
ENDCHAR
STARTCHAR char178
ENCODING 178
SWIDTH 540 0
DWIDTH 6 0
BBX 6 12 0 -2
BITMAP
00
30
68
10
30
78
00
00
00
00
00
00
ENDCHAR
STARTCHAR char179
ENCODING 179
SWIDTH 540 0
DWIDTH 6 0
BBX 6 12 0 -2
BITMAP
00
70
18
30
18
70
00
00
00
00
00
00
ENDCHAR
STARTCHAR char180
ENCODING 180
SWIDTH 540 0
DWIDTH 6 0
BBX 6 12 0 -2
BITMAP
00
18
30
00
00
00
00
00
00
00
00
00
ENDCHAR
STARTCHAR char181
ENCODING 181
SWIDTH 540 0
DWIDTH 6 0
BBX 6 12 0 -2
BITMAP
00
00
00
00
D8
D8
D8
D8
D8
F0
C0
00
ENDCHAR
STARTCHAR char182
ENCODING 182
SWIDTH 540 0
DWIDTH 6 0
BBX 6 12 0 -2
BITMAP
00
00
78
E8
E8
E8
68
68
68
68
00
00
ENDCHAR
STARTCHAR char183
ENCODING 183
SWIDTH 540 0
DWIDTH 6 0
BBX 6 12 0 -2
BITMAP
00
00
00
00
00
30
00
00
00
00
00
00
ENDCHAR
STARTCHAR char184
ENCODING 184
SWIDTH 540 0
DWIDTH 6 0
BBX 6 12 0 -2
BITMAP
00
00
00
00
00
00
00
00
00
18
30
00
ENDCHAR
STARTCHAR char185
ENCODING 185
SWIDTH 540 0
DWIDTH 6 0
BBX 6 12 0 -2
BITMAP
00
30
70
30
30
78
00
00
00
00
00
00
ENDCHAR
STARTCHAR char186
ENCODING 186
SWIDTH 540 0
DWIDTH 6 0
BBX 6 12 0 -2
BITMAP
00
00
30
68
68
68
30
00
78
00
00
00
ENDCHAR
STARTCHAR char187
ENCODING 187
SWIDTH 540 0
DWIDTH 6 0
BBX 6 12 0 -2
BITMAP
00
00
B0
D8
6C
34
6C
D8
B0
00
00
00
ENDCHAR
STARTCHAR char188
ENCODING 188
SWIDTH 540 0
DWIDTH 6 0
BBX 6 12 0 -2
BITMAP
00
60
E0
64
68
F0
2C
5C
B4
7C
0C
00
ENDCHAR
STARTCHAR char189
ENCODING 189
SWIDTH 540 0
DWIDTH 6 0
BBX 6 12 0 -2
BITMAP
00
60
E0
64
68
F0
38
7C
98
30
3C
00
ENDCHAR
STARTCHAR char190
ENCODING 190
SWIDTH 540 0
DWIDTH 6 0
BBX 6 12 0 -2
BITMAP
00
C0
60
C4
68
D0
28
58
A8
78
18
00
ENDCHAR
STARTCHAR char191
ENCODING 191
SWIDTH 540 0
DWIDTH 6 0
BBX 6 12 0 -2
BITMAP
00
00
30
00
30
30
60
C0
D8
70
00
00
ENDCHAR
STARTCHAR char192
ENCODING 192
SWIDTH 540 0
DWIDTH 6 0
BBX 6 12 0 -2
BITMAP
40
20
70
D8
D8
F8
D8
D8
D8
D8
00
00
ENDCHAR
STARTCHAR char193
ENCODING 193
SWIDTH 540 0
DWIDTH 6 0
BBX 6 12 0 -2
BITMAP
10
20
70
D8
D8
F8
D8
D8
D8
D8
00
00
ENDCHAR
STARTCHAR char194
ENCODING 194
SWIDTH 540 0
DWIDTH 6 0
BBX 6 12 0 -2
BITMAP
20
50
00
70
D8
F8
D8
D8
D8
D8
00
00
ENDCHAR
STARTCHAR char195
ENCODING 195
SWIDTH 540 0
DWIDTH 6 0
BBX 6 12 0 -2
BITMAP
48
B0
00
70
D8
F8
D8
D8
D8
D8
00
00
ENDCHAR
STARTCHAR char196
ENCODING 196
SWIDTH 540 0
DWIDTH 6 0
BBX 6 12 0 -2
BITMAP
50
00
70
D8
D8
F8
D8
D8
D8
D8
00
00
ENDCHAR
STARTCHAR char197
ENCODING 197
SWIDTH 540 0
DWIDTH 6 0
BBX 6 12 0 -2
BITMAP
20
50
20
70
D8
F8
D8
D8
D8
D8
00
00
ENDCHAR
STARTCHAR char198
ENCODING 198
SWIDTH 540 0
DWIDTH 6 0
BBX 6 12 0 -2
BITMAP
00
00
78
B0
B0
F8
B0
B0
B0
B8
00
00
ENDCHAR
STARTCHAR char199
ENCODING 199
SWIDTH 540 0
DWIDTH 6 0
BBX 6 12 0 -2
BITMAP
00
00
70
D8
C0
C0
C0
E0
F8
70
40
00
ENDCHAR
STARTCHAR char200
ENCODING 200
SWIDTH 540 0
DWIDTH 6 0
BBX 6 12 0 -2
BITMAP
40
20
F8
C0
C0
F0
C0
C0
C0
F8
00
00
ENDCHAR
STARTCHAR char201
ENCODING 201
SWIDTH 540 0
DWIDTH 6 0
BBX 6 12 0 -2
BITMAP
10
20
F8
C0
C0
F0
C0
C0
C0
F8
00
00
ENDCHAR
STARTCHAR char202
ENCODING 202
SWIDTH 540 0
DWIDTH 6 0
BBX 6 12 0 -2
BITMAP
20
50
F8
C0
C0
F0
C0
C0
C0
F8
00
00
ENDCHAR
STARTCHAR char203
ENCODING 203
SWIDTH 540 0
DWIDTH 6 0
BBX 6 12 0 -2
BITMAP
50
00
F8
C0
C0
F0
C0
C0
C0
F8
00
00
ENDCHAR
STARTCHAR char204
ENCODING 204
SWIDTH 540 0
DWIDTH 6 0
BBX 6 12 0 -2
BITMAP
20
10
00
30
30
30
30
30
30
38
00
00
ENDCHAR
STARTCHAR char205
ENCODING 205
SWIDTH 540 0
DWIDTH 6 0
BBX 6 12 0 -2
BITMAP
20
40
00
30
30
30
30
30
30
38
00
00
ENDCHAR
STARTCHAR char206
ENCODING 206
SWIDTH 540 0
DWIDTH 6 0
BBX 6 12 0 -2
BITMAP
20
50
00
30
30
30
30
30
30
38
00
00
ENDCHAR
STARTCHAR char207
ENCODING 207
SWIDTH 540 0
DWIDTH 6 0
BBX 6 12 0 -2
BITMAP
50
00
30
30
30
30
30
30
30
38
00
00
ENDCHAR
STARTCHAR char208
ENCODING 208
SWIDTH 540 0
DWIDTH 6 0
BBX 6 12 0 -2
BITMAP
00
00
70
68
68
68
E8
68
68
70
00
00
ENDCHAR
STARTCHAR char209
ENCODING 209
SWIDTH 540 0
DWIDTH 6 0
BBX 6 12 0 -2
BITMAP
48
B0
00
98
D8
D8
F8
D8
D8
C8
00
00
ENDCHAR
STARTCHAR char210
ENCODING 210
SWIDTH 540 0
DWIDTH 6 0
BBX 6 12 0 -2
BITMAP
40
20
70
D8
D8
D8
D8
D8
D8
70
00
00
ENDCHAR
STARTCHAR char211
ENCODING 211
SWIDTH 540 0
DWIDTH 6 0
BBX 6 12 0 -2
BITMAP
10
20
70
D8
D8
D8
D8
D8
D8
70
00
00
ENDCHAR
STARTCHAR char212
ENCODING 212
SWIDTH 540 0
DWIDTH 6 0
BBX 6 12 0 -2
BITMAP
20
50
00
70
D8
D8
D8
D8
D8
70
00
00
ENDCHAR
STARTCHAR char213
ENCODING 213
SWIDTH 540 0
DWIDTH 6 0
BBX 6 12 0 -2
BITMAP
48
B0
00
70
D8
D8
D8
D8
D8
70
00
00
ENDCHAR
STARTCHAR char214
ENCODING 214
SWIDTH 540 0
DWIDTH 6 0
BBX 6 12 0 -2
BITMAP
50
00
70
D8
D8
D8
D8
D8
D8
70
00
00
ENDCHAR
STARTCHAR char215
ENCODING 215
SWIDTH 540 0
DWIDTH 6 0
BBX 6 12 0 -2
BITMAP
00
00
00
D8
70
20
70
D8
00
00
00
00
ENDCHAR
STARTCHAR char216
ENCODING 216
SWIDTH 540 0
DWIDTH 6 0
BBX 6 12 0 -2
BITMAP
00
00
74
D8
D8
F8
D8
D8
70
00
00
00
ENDCHAR
STARTCHAR char217
ENCODING 217
SWIDTH 540 0
DWIDTH 6 0
BBX 6 12 0 -2
BITMAP
40
20
D8
D8
D8
D8
D8
D8
D8
70
00
00
ENDCHAR
STARTCHAR char218
ENCODING 218
SWIDTH 540 0
DWIDTH 6 0
BBX 6 12 0 -2
BITMAP
10
20
D8
D8
D8
D8
D8
D8
D8
70
00
00
ENDCHAR
STARTCHAR char219
ENCODING 219
SWIDTH 540 0
DWIDTH 6 0
BBX 6 12 0 -2
BITMAP
10
20
D8
D8
D8
D8
D8
D8
D8
70
00
00
ENDCHAR
STARTCHAR char220
ENCODING 220
SWIDTH 540 0
DWIDTH 6 0
BBX 6 12 0 -2
BITMAP
50
00
D8
D8
D8
D8
D8
D8
D8
70
00
00
ENDCHAR
STARTCHAR char221
ENCODING 221
SWIDTH 540 0
DWIDTH 6 0
BBX 6 12 0 -2
BITMAP
10
20
D8
D8
D8
70
70
30
30
30
00
00
ENDCHAR
STARTCHAR char222
ENCODING 222
SWIDTH 540 0
DWIDTH 6 0
BBX 6 12 0 -2
BITMAP
00
00
C0
F0
D8
D8
D8
F0
C0
C0
00
00
ENDCHAR
STARTCHAR char223
ENCODING 223
SWIDTH 540 0
DWIDTH 6 0
BBX 6 12 0 -2
BITMAP
00
70
D8
D8
F0
D8
D8
D8
D8
F0
C0
C0
ENDCHAR
STARTCHAR char224
ENCODING 224
SWIDTH 540 0
DWIDTH 6 0
BBX 6 12 0 -2
BITMAP
00
20
10
00
70
18
78
D8
D8
78
00
00
ENDCHAR
STARTCHAR char225
ENCODING 225
SWIDTH 540 0
DWIDTH 6 0
BBX 6 12 0 -2
BITMAP
00
10
20
00
70
18
78
D8
D8
78
00
00
ENDCHAR
STARTCHAR char226
ENCODING 226
SWIDTH 540 0
DWIDTH 6 0
BBX 6 12 0 -2
BITMAP
00
20
50
00
70
18
78
D8
D8
78
00
00
ENDCHAR
STARTCHAR char227
ENCODING 227
SWIDTH 540 0
DWIDTH 6 0
BBX 6 12 0 -2
BITMAP
00
48
B0
00
70
18
78
D8
D8
78
00
00
ENDCHAR
STARTCHAR char228
ENCODING 228
SWIDTH 540 0
DWIDTH 6 0
BBX 6 12 0 -2
BITMAP
00
00
50
00
70
18
78
D8
D8
78
00
00
ENDCHAR
STARTCHAR char229
ENCODING 229
SWIDTH 540 0
DWIDTH 6 0
BBX 6 12 0 -2
BITMAP
00
20
50
20
70
18
78
D8
D8
78
00
00
ENDCHAR
STARTCHAR char230
ENCODING 230
SWIDTH 540 0
DWIDTH 6 0
BBX 6 12 0 -2
BITMAP
00
00
00
00
70
A8
B8
B0
B0
78
00
00
ENDCHAR
STARTCHAR char231
ENCODING 231
SWIDTH 540 0
DWIDTH 6 0
BBX 6 12 0 -2
BITMAP
00
00
00
00
78
C0
C0
C0
F0
78
30
60
ENDCHAR
STARTCHAR char232
ENCODING 232
SWIDTH 540 0
DWIDTH 6 0
BBX 6 12 0 -2
BITMAP
00
40
20
00
70
C8
F8
C0
C0
78
00
00
ENDCHAR
STARTCHAR char233
ENCODING 233
SWIDTH 540 0
DWIDTH 6 0
BBX 6 12 0 -2
BITMAP
00
10
20
00
70
C8
F8
C0
C0
78
00
00
ENDCHAR
STARTCHAR char234
ENCODING 234
SWIDTH 540 0
DWIDTH 6 0
BBX 6 12 0 -2
BITMAP
00
20
50
00
70
C8
F8
C0
C0
78
00
00
ENDCHAR
STARTCHAR char235
ENCODING 235
SWIDTH 540 0
DWIDTH 6 0
BBX 6 12 0 -2
BITMAP
00
00
50
00
70
C8
F8
C0
C0
78
00
00
ENDCHAR
STARTCHAR char236
ENCODING 236
SWIDTH 540 0
DWIDTH 6 0
BBX 6 12 0 -2
BITMAP
00
20
10
00
70
30
30
30
30
38
00
00
ENDCHAR
STARTCHAR char237
ENCODING 237
SWIDTH 540 0
DWIDTH 6 0
BBX 6 12 0 -2
BITMAP
00
20
40
00
70
30
30
30
30
38
00
00
ENDCHAR
STARTCHAR char238
ENCODING 238
SWIDTH 540 0
DWIDTH 6 0
BBX 6 12 0 -2
BITMAP
00
20
50
00
70
30
30
30
30
38
00
00
ENDCHAR
STARTCHAR char239
ENCODING 239
SWIDTH 540 0
DWIDTH 6 0
BBX 6 12 0 -2
BITMAP
00
00
50
00
70
30
30
30
30
38
00
00
ENDCHAR
STARTCHAR char240
ENCODING 240
SWIDTH 540 0
DWIDTH 6 0
BBX 6 12 0 -2
BITMAP
00
60
60
10
78
D8
D8
D8
D8
70
00
00
ENDCHAR
STARTCHAR char241
ENCODING 241
SWIDTH 540 0
DWIDTH 6 0
BBX 6 12 0 -2
BITMAP
00
50
A0
00
F0
D8
D8
D8
D8
D8
00
00
ENDCHAR
STARTCHAR char242
ENCODING 242
SWIDTH 540 0
DWIDTH 6 0
BBX 6 12 0 -2
BITMAP
00
40
20
00
70
D8
D8
D8
D8
70
00
00
ENDCHAR
STARTCHAR char243
ENCODING 243
SWIDTH 540 0
DWIDTH 6 0
BBX 6 12 0 -2
BITMAP
00
10
20
00
70
D8
D8
D8
D8
70
00
00
ENDCHAR
STARTCHAR char244
ENCODING 244
SWIDTH 540 0
DWIDTH 6 0
BBX 6 12 0 -2
BITMAP
00
20
50
00
70
D8
D8
D8
D8
70
00
00
ENDCHAR
STARTCHAR char245
ENCODING 245
SWIDTH 540 0
DWIDTH 6 0
BBX 6 12 0 -2
BITMAP
00
50
A0
00
70
D8
D8
D8
D8
70
00
00
ENDCHAR
STARTCHAR char246
ENCODING 246
SWIDTH 540 0
DWIDTH 6 0
BBX 6 12 0 -2
BITMAP
00
00
50
00
70
D8
D8
D8
D8
70
00
00
ENDCHAR
STARTCHAR char247
ENCODING 247
SWIDTH 540 0
DWIDTH 6 0
BBX 6 12 0 -2
BITMAP
00
00
00
20
00
F8
00
20
00
00
00
00
ENDCHAR
STARTCHAR char248
ENCODING 248
SWIDTH 540 0
DWIDTH 6 0
BBX 6 12 0 -2
BITMAP
00
00
00
00
70
D8
F8
F8
D8
70
00
00
ENDCHAR
STARTCHAR char249
ENCODING 249
SWIDTH 540 0
DWIDTH 6 0
BBX 6 12 0 -2
BITMAP
00
40
20
00
D8
D8
D8
D8
D8
78
00
00
ENDCHAR
STARTCHAR char250
ENCODING 250
SWIDTH 540 0
DWIDTH 6 0
BBX 6 12 0 -2
BITMAP
00
10
20
00
D8
D8
D8
D8
D8
78
00
00
ENDCHAR
STARTCHAR char251
ENCODING 251
SWIDTH 540 0
DWIDTH 6 0
BBX 6 12 0 -2
BITMAP
00
20
50
00
D8
D8
D8
D8
D8
78
00
00
ENDCHAR
STARTCHAR char252
ENCODING 252
SWIDTH 540 0
DWIDTH 6 0
BBX 6 12 0 -2
BITMAP
00
00
50
00
D8
D8
D8
D8
D8
78
00
00
ENDCHAR
STARTCHAR char253
ENCODING 253
SWIDTH 540 0
DWIDTH 6 0
BBX 6 12 0 -2
BITMAP
00
10
20
00
D8
D8
D8
D8
78
18
D8
70
ENDCHAR
STARTCHAR char254
ENCODING 254
SWIDTH 540 0
DWIDTH 6 0
BBX 6 12 0 -2
BITMAP
00
00
C0
C0
F0
D8
D8
D8
D8
F0
C0
C0
ENDCHAR
STARTCHAR char255
ENCODING 255
SWIDTH 540 0
DWIDTH 6 0
BBX 6 12 0 -2
BITMAP
00
00
50
00
D8
D8
D8
D8
78
18
D8
70
ENDCHAR
ENDFONT
